<svg width="24" height="24" viewBox="0 0 24 24" fill="none" xmlns="http://www.w3.org/2000/svg">
<path d="M2.999 9V18C2.999 19.657 4.342 21 5.999 21H17.999C19.656 21 20.999 19.657 20.999 18V9" stroke="#323232" stroke-width="1.5" stroke-linecap="round" stroke-linejoin="round"/>
<path fill-rule="evenodd" clip-rule="evenodd" d="M4.398 6.765L10.259 2.562C11.304 1.812 12.711 1.813 13.756 2.563L19.592 6.754C21.461 8.096 21.46 10.291 19.59 11.631L13.74 15.826C12.695 16.576 11.288 16.575 10.243 15.825L4.396 11.626C2.534 10.288 2.535 8.101 4.398 6.765Z" stroke="#323232" stroke-width="1.5" stroke-linecap="round" stroke-linejoin="round"/>
<path d="M18.002 12.77V11C18.002 9.895 17.107 9 16.002 9H8.002C6.897 9 6.002 9.895 6.002 11V12.725" stroke="#323232" stroke-width="1.5" stroke-linecap="round" stroke-linejoin="round"/>
</svg>
