<svg width="24" height="24" viewBox="0 0 24 24" fill="none" xmlns="http://www.w3.org/2000/svg">
<path d="M8.92672 16.0017L8.42651 20.0033" stroke="#323232" stroke-width="1.5" stroke-linecap="round" stroke-linejoin="round"/>
<path d="M20.4315 8.99875V5.42527C20.4315 4.08376 19.344 2.99625 18.0025 2.99625H5.42526C4.08375 2.99625 2.99625 4.08376 2.99625 5.42527V13.5727C2.99625 14.9142 4.08375 16.0017 5.42526 16.0017H13.0004" stroke="#323232" stroke-width="1.5" stroke-linecap="round" stroke-linejoin="round"/>
<path fill-rule="evenodd" clip-rule="evenodd" d="M21.504 21.0038H15.0012C14.725 21.0038 14.501 20.7798 14.501 20.5035V20.0974C14.5043 18.9418 15.4403 18.0058 16.5959 18.0025H19.9093C21.0649 18.0058 22.0009 18.9418 22.0042 20.0974V20.5035C22.0042 20.7798 21.7802 21.0038 21.504 21.0038Z" stroke="#323232" stroke-width="1.5" stroke-linecap="round" stroke-linejoin="round"/>
<path fill-rule="evenodd" clip-rule="evenodd" d="M18.2526 15.5015C17.1484 15.4993 16.2547 14.6029 16.2558 13.4986C16.2569 12.3944 17.1524 11.4998 18.2566 11.4998C19.3609 11.4998 20.2563 12.3944 20.2574 13.4986C20.2585 14.6029 19.3649 15.4993 18.2606 15.5015H18.2526Z" stroke="#323232" stroke-width="1.5" stroke-linecap="round" stroke-linejoin="round"/>
<path d="M6.92589 20.0033H10.9996" stroke="#323232" stroke-width="1.5" stroke-linecap="round" stroke-linejoin="round"/>
</svg>
