<svg width="24" height="24" viewBox="0 0 24 24" fill="none" xmlns="http://www.w3.org/2000/svg">
<path fill-rule="evenodd" clip-rule="evenodd" d="M9.225 6.452V6.452C9.225 4.92 10.467 3.677 12 3.677V3.677C13.532 3.677 14.775 4.919 14.775 6.452V6.452C14.775 7.984 13.533 9.227 12 9.227V9.227C10.467 9.225 9.225 7.983 9.225 6.452Z" stroke="#323232" stroke-width="1.5" stroke-linecap="round" stroke-linejoin="round"/>
<path fill-rule="evenodd" clip-rule="evenodd" d="M2.5 17.548V17.548C2.5 16.016 3.742 14.773 5.275 14.773V14.773C6.807 14.773 8.05 16.015 8.05 17.548V17.548C8.049 19.08 6.808 20.323 5.275 20.323V20.323C3.742 20.323 2.5 19.081 2.5 17.548Z" stroke="#323232" stroke-width="1.5" stroke-linecap="round" stroke-linejoin="round"/>
<path fill-rule="evenodd" clip-rule="evenodd" d="M15.951 17.548V17.548C15.951 16.016 17.193 14.773 18.726 14.773V14.773C20.258 14.773 21.501 16.015 21.501 17.548V17.548C21.501 19.08 20.259 20.323 18.726 20.323V20.323C17.192 20.323 15.951 19.081 15.951 17.548H15.951Z" stroke="#323232" stroke-width="1.5" stroke-linecap="round" stroke-linejoin="round"/>
<path d="M8.49 11.92L6.48 15.06" stroke="#323232" stroke-width="1.5" stroke-linecap="round" stroke-linejoin="round"/>
<path d="M13.5 8.78L15.51 11.92" stroke="#323232" stroke-width="1.5" stroke-linecap="round" stroke-linejoin="round"/>
<path d="M15.95 17.55H12" stroke="#323232" stroke-width="1.5" stroke-linecap="round" stroke-linejoin="round"/>
</svg>
